<svg xmlns="http://www.w3.org/2000/svg" viewBox="0 0 860 480" width="860" height="480" font-family="'Inter',system-ui,-apple-system,sans-serif">
  <defs>
    <filter id="shadow" x="-10%" y="-10%" width="130%" height="130%">
      <feDropShadow dx="0" dy="4" stdDeviation="8" flood-color="#0f172a" flood-opacity="0.08"/>
    </filter>
    <filter id="shadow2" x="-20%" y="-20%" width="160%" height="160%">
      <feDropShadow dx="0" dy="2" stdDeviation="4" flood-color="#0f172a" flood-opacity="0.12"/>
    </filter>
    <filter id="glow">
      <feDropShadow dx="0" dy="0" stdDeviation="6" flood-color="#22c55e" flood-opacity="0.5"/>
    </filter>
    <linearGradient id="screenGrad" x1="0" y1="0" x2="0" y2="1">
      <stop offset="0%" stop-color="#1e3a8a"/>
      <stop offset="100%" stop-color="#0f172a"/>
    </linearGradient>
    <linearGradient id="aiGrad" x1="0" y1="0" x2="1" y2="1">
      <stop offset="0%" stop-color="#052e16"/>
      <stop offset="100%" stop-color="#14532d"/>
    </linearGradient>
    <linearGradient id="barGrad" x1="0" y1="0" x2="1" y2="0">
      <stop offset="0%" stop-color="#22c55e"/>
      <stop offset="100%" stop-color="#86efac"/>
    </linearGradient>
    <marker id="arrowhead" markerWidth="8" markerHeight="6" refX="7" refY="3" orient="auto">
      <polygon points="0 0, 8 3, 0 6" fill="#16a34a"/>
    </marker>
  </defs>

  <!-- Background -->
  <rect width="860" height="480" fill="#f1f5f9" rx="16"/>

  <!-- ══ LEFT PANEL: Before — Manual Review ══ -->
  <rect x="32" y="32" width="370" height="416" fill="#1e293b" rx="12" filter="url(#shadow)"/>

  <!-- Panel header -->
  <rect x="32" y="32" width="370" height="46" fill="#0f172a" rx="12"/>
  <rect x="32" y="62" width="370" height="16" fill="#0f172a"/>
  <text x="217" y="60" text-anchor="middle" fill="#94a3b8" font-size="11" font-weight="700" letter-spacing="1.5">BEFORE — MANUAL REVIEW</text>

  <!-- BEFORE badge -->
  <rect x="36" y="38" width="100" height="20" fill="#dc2626" rx="10"/>
  <text x="86" y="52" text-anchor="middle" fill="white" font-size="10" font-weight="700" letter-spacing="0.5">⏱  60 HOURS</text>

  <!-- Clock: 60 HRS -->
  <circle cx="217" cy="138" r="50" fill="#0f172a" stroke="#334155" stroke-width="2"/>
  <circle cx="217" cy="138" r="44" fill="#0f172a" stroke="#475569" stroke-width="1"/>
  <line x1="217" y1="97"  x2="217" y2="103" stroke="#64748b" stroke-width="2"/>
  <line x1="217" y1="169" x2="217" y2="175" stroke="#64748b" stroke-width="2"/>
  <line x1="175" y1="138" x2="181" y2="138" stroke="#64748b" stroke-width="2"/>
  <line x1="253" y1="138" x2="259" y2="138" stroke="#64748b" stroke-width="2"/>
  <line x1="217" y1="138" x2="217" y2="105" stroke="#ef4444" stroke-width="2.5" stroke-linecap="round"/>
  <line x1="217" y1="138" x2="238" y2="145" stroke="#f97316" stroke-width="2" stroke-linecap="round"/>
  <circle cx="217" cy="138" r="3" fill="#ef4444"/>
  <text x="217" y="157" text-anchor="middle" fill="#ef4444" font-size="14" font-weight="900">60 HRS</text>

  <!-- Evidence drives -->
  <rect x="60" y="210" width="80" height="16" fill="#334155" rx="3" filter="url(#shadow2)"/>
  <rect x="62" y="215" width="6"  height="6" fill="#64748b" rx="1"/>
  <rect x="126" y="215" width="6" height="3" fill="#22c55e" rx="1" opacity="0.6"/>
  <rect x="60" y="226" width="80" height="16" fill="#293548" rx="3"/>
  <rect x="62" y="231" width="6"  height="6" fill="#64748b" rx="1"/>
  <rect x="126" y="231" width="6" height="3" fill="#f59e0b" rx="1" opacity="0.6"/>
  <rect x="60" y="242" width="80" height="16" fill="#334155" rx="3"/>
  <rect x="62" y="247" width="6"  height="6" fill="#64748b" rx="1"/>
  <rect x="126" y="247" width="6" height="3" fill="#ef4444" rx="1" opacity="0.6"/>
  <rect x="60" y="258" width="80" height="16" fill="#293548" rx="3"/>
  <text x="100" y="290" text-anchor="middle" fill="#64748b" font-size="9" font-weight="600">EVIDENCE DRIVES</text>
  <text x="100" y="302" text-anchor="middle" fill="#ef4444" font-size="9" font-weight="700">247 ITEMS</text>

  <!-- Video screens -->
  <rect x="168" y="205" width="62" height="44" fill="url(#screenGrad)" rx="4" stroke="#475569" stroke-width="1"/>
  <rect x="171" y="208" width="56" height="36" fill="#0f172a" rx="2"/>
  <rect x="173" y="210" width="52" height="7"  fill="#1e3a8a" rx="1" opacity="0.8"/>
  <rect x="173" y="219" width="40" height="4"  fill="#334155" rx="1"/>
  <rect x="173" y="225" width="48" height="4"  fill="#334155" rx="1"/>
  <rect x="173" y="231" width="35" height="4"  fill="#334155" rx="1"/>
  <rect x="168" y="249" width="14" height="6"  fill="#334155" rx="1"/>
  <rect x="175" y="249" width="48" height="6"  fill="#293548" rx="1"/>

  <rect x="240" y="205" width="62" height="44" fill="url(#screenGrad)" rx="4" stroke="#475569" stroke-width="1"/>
  <rect x="243" y="208" width="56" height="36" fill="#0f172a" rx="2"/>
  <rect x="245" y="210" width="52" height="7"  fill="#1e3a8a" rx="1" opacity="0.8"/>
  <rect x="245" y="219" width="44" height="4"  fill="#334155" rx="1"/>
  <rect x="245" y="225" width="36" height="4"  fill="#334155" rx="1"/>
  <rect x="245" y="231" width="50" height="4"  fill="#334155" rx="1"/>
  <rect x="240" y="249" width="14" height="6"  fill="#334155" rx="1"/>
  <rect x="247" y="249" width="48" height="6"  fill="#293548" rx="1"/>

  <rect x="312" y="205" width="62" height="44" fill="url(#screenGrad)" rx="4" stroke="#475569" stroke-width="1"/>
  <rect x="315" y="208" width="56" height="36" fill="#0f172a" rx="2"/>
  <rect x="317" y="210" width="52" height="7"  fill="#1e3a8a" rx="1" opacity="0.8"/>
  <rect x="317" y="219" width="38" height="4"  fill="#334155" rx="1"/>
  <rect x="317" y="225" width="50" height="4"  fill="#334155" rx="1"/>
  <rect x="317" y="231" width="42" height="4"  fill="#334155" rx="1"/>
  <rect x="312" y="249" width="14" height="6"  fill="#334155" rx="1"/>
  <rect x="319" y="249" width="48" height="6"  fill="#293548" rx="1"/>

  <text x="270" y="288" text-anchor="middle" fill="#64748b" font-size="9" font-weight="600">BWC · CCTV · DASHCAM</text>
  <text x="270" y="300" text-anchor="middle" fill="#ef4444" font-size="9" font-weight="700">60+ HRS OF FOOTAGE</text>

  <!-- Manual workload breakdown card -->
  <rect x="52" y="318" width="330" height="112" fill="#0f172a" rx="8" stroke="#334155" stroke-width="1.5"/>
  <text x="70" y="338" fill="#94a3b8" font-size="9" font-weight="700" letter-spacing="0.8">MANUAL REVIEW WORKLOAD</text>
  <rect x="52" y="344" width="330" height="1" fill="#334155" opacity="0.6"/>

  <!-- Workload rows -->
  <text x="70"  y="360" fill="#64748b" font-size="8.5">BWC footage scrub (89 files)</text>
  <text x="375" y="360" text-anchor="end" fill="#ef4444" font-size="8.5" font-weight="700">~22 hrs</text>
  <text x="70"  y="375" fill="#64748b" font-size="8.5">CCTV review (104 files)</text>
  <text x="375" y="375" text-anchor="end" fill="#ef4444" font-size="8.5" font-weight="700">~26 hrs</text>
  <text x="70"  y="390" fill="#64748b" font-size="8.5">Dashcam + audio (54 files)</text>
  <text x="375" y="390" text-anchor="end" fill="#ef4444" font-size="8.5" font-weight="700">~12 hrs</text>
  <rect x="52" y="396" width="330" height="1" fill="#334155" opacity="0.4"/>
  <text x="70"  y="412" fill="#94a3b8" font-size="8.5" font-weight="700">Total — one investigator, one case</text>
  <text x="375" y="412" text-anchor="end" fill="#ef4444" font-size="9" font-weight="900">60 hrs</text>

  <!-- Risk note -->
  <rect x="52" y="420" width="330" height="18" fill="#1c1917" rx="4"/>
  <text x="217" y="433" text-anchor="middle" fill="#f97316" font-size="8.5" font-weight="600">⚠  Error rate rises with fatigue after hour 4 of continuous review</text>

  <!-- ══ ARROW ══ -->
  <path d="M 418 240 Q 430 240 442 240" stroke="#16a34a" stroke-width="3" stroke-dasharray="6,3" fill="none" marker-end="url(#arrowhead)"/>
  <rect x="406" y="224" width="24" height="32" fill="#f1f5f9"/>
  <text x="418" y="243" text-anchor="middle" fill="#16a34a" font-size="20" font-weight="900">→</text>

  <!-- ══ RIGHT PANEL: After — Longeye AI ══ -->
  <rect x="458" y="32" width="370" height="416" fill="url(#aiGrad)" rx="12" filter="url(#shadow)"/>

  <!-- Panel header -->
  <rect x="458" y="32" width="370" height="46" fill="#052e16" rx="12"/>
  <rect x="458" y="62" width="370" height="16" fill="#052e16"/>
  <text x="643" y="60" text-anchor="middle" fill="#86efac" font-size="11" font-weight="700" letter-spacing="1.5">AFTER — LONGEYE AI  ·  REDMOND, WA</text>

  <!-- AFTER badge -->
  <rect x="462" y="38" width="120" height="20" fill="#16a34a" rx="10" filter="url(#glow)"/>
  <text x="522" y="52" text-anchor="middle" fill="white" font-size="10" font-weight="700" letter-spacing="0.5">⚡ &lt; 30 MINUTES</text>

  <!-- AI radar -->
  <circle cx="643" cy="138" r="50" fill="#052e16" stroke="#166534" stroke-width="2"/>
  <circle cx="643" cy="138" r="44" fill="#052e16" stroke="#15803d" stroke-width="1" stroke-dasharray="4,3" opacity="0.6"/>
  <circle cx="643" cy="138" r="32" fill="#052e16" stroke="#22c55e" stroke-width="1" stroke-dasharray="3,4" opacity="0.4"/>
  <line x1="643" y1="138" x2="643" y2="94"  stroke="#22c55e" stroke-width="2" stroke-linecap="round" opacity="0.9"/>
  <line x1="643" y1="138" x2="672" y2="112" stroke="#22c55e" stroke-width="1.5" stroke-linecap="round" opacity="0.5"/>
  <circle cx="660" cy="120" r="3" fill="#22c55e" filter="url(#glow)"/>
  <circle cx="628" cy="108" r="2" fill="#86efac" opacity="0.8"/>
  <circle cx="656" cy="152" r="2" fill="#86efac" opacity="0.6"/>
  <circle cx="643" cy="138" r="4" fill="#22c55e" filter="url(#glow)"/>
  <text x="643" y="160" text-anchor="middle" fill="#22c55e" font-size="14" font-weight="900">&lt; 1 MIN / FILE</text>

  <!-- Progress bars -->
  <text x="478" y="215" fill="#86efac" font-size="9" font-weight="700" letter-spacing="0.8">PROCESSING EVIDENCE — 247 ITEMS</text>

  <rect x="478" y="222" width="310" height="12" fill="#052e16" rx="6"/>
  <rect x="478" y="222" width="310" height="12" fill="url(#barGrad)" rx="6"/>
  <text x="478" y="248" fill="#94a3b8" font-size="8.5">BWC Footage · 89 files</text>
  <text x="782" y="248" text-anchor="end" fill="#22c55e" font-size="8.5" font-weight="700">✓ Done</text>

  <rect x="478" y="252" width="310" height="12" fill="#052e16" rx="6"/>
  <rect x="478" y="252" width="310" height="12" fill="url(#barGrad)" rx="6"/>
  <text x="478" y="278" fill="#94a3b8" font-size="8.5">CCTV Footage · 104 files</text>
  <text x="782" y="278" text-anchor="end" fill="#22c55e" font-size="8.5" font-weight="700">✓ Done</text>

  <rect x="478" y="282" width="310" height="12" fill="#052e16" rx="6"/>
  <rect x="478" y="282" width="310" height="12" fill="url(#barGrad)" rx="6"/>
  <text x="478" y="308" fill="#94a3b8" font-size="8.5">Dashcam / Audio · 54 files</text>
  <text x="782" y="308" text-anchor="end" fill="#22c55e" font-size="8.5" font-weight="700">✓ Done</text>

  <!-- Results card -->
  <rect x="478" y="318" width="310" height="112" fill="#052e16" rx="8" stroke="#166534" stroke-width="1.5"/>
  <text x="496" y="338" fill="#86efac" font-size="9" font-weight="700" letter-spacing="0.8">AI ANALYSIS COMPLETE</text>
  <rect x="478" y="344" width="310" height="1" fill="#166534" opacity="0.5"/>

  <text x="496" y="360" fill="#64748b" font-size="8.5">Flagged segments</text>
  <text x="782" y="360" text-anchor="end" fill="#f0fdf4" font-size="8.5" font-weight="700">14 clips</text>
  <text x="496" y="375" fill="#64748b" font-size="8.5">Persons of interest matched</text>
  <text x="782" y="375" text-anchor="end" fill="#f0fdf4" font-size="8.5" font-weight="700">3 confirmed</text>
  <text x="496" y="390" fill="#64748b" font-size="8.5">Time saved vs. manual review</text>
  <text x="782" y="390" text-anchor="end" fill="#22c55e" font-size="8.5" font-weight="900">~59.5 hours</text>
  <text x="496" y="405" fill="#64748b" font-size="8.5">Total processing time</text>
  <text x="782" y="405" text-anchor="end" fill="#22c55e" font-size="8.5" font-weight="900">&lt; 30 min</text>
  <rect x="478" y="412" width="310" height="1" fill="#166534" opacity="0.4"/>
  <text x="496" y="424" fill="#64748b" font-size="8.5" font-weight="700">Speed improvement</text>
  <text x="782" y="424" text-anchor="end" fill="#22c55e" font-size="9" font-weight="900">100×  faster</text>

  <!-- Accuracy note -->
  <rect x="478" y="420" width="310" height="18" fill="#052e16" rx="4" stroke="#166534" stroke-width="1" opacity="0"/>
  <rect x="478" y="432" width="310" height="16" fill="#14532d" rx="4"/>
  <text x="643" y="444" text-anchor="middle" fill="#86efac" font-size="8.5" font-weight="600">✓  Consistent accuracy — no fatigue degradation</text>

  <!-- Caption -->
  <text x="430" y="466" text-anchor="middle" fill="#64748b" font-size="10.5" font-weight="500">Longeye AI — Redmond, WA: 247 evidence files processed in under 30 minutes vs. 60 hours manual review (100× faster)</text>

</svg>
